<svg xmlns="http://www.w3.org/2000/svg" width="256" height="256" viewBox="0 0 100 100"><rect width="100" height="100" rx="20" fill="#7cb1b6"></rect><path fill="#fff" d="M18.47 70.27L18.47 70.27Q16.85 70.27 15.36 69.66Q13.88 69.04 12.96 67.92Q12.03 66.80 12.03 65.34L12.03 65.34Q12.03 64.22 12.76 63.30Q13.49 62.38 14.94 62.38L14.94 62.38Q16.01 62.38 16.74 63.02Q17.46 63.66 17.46 64.67L17.46 64.67Q17.46 65.18 17.35 65.54Q17.24 65.90 17.13 66.18L17.13 66.18Q17.02 66.52 16.93 66.80Q16.85 67.08 16.85 67.36L16.85 67.36Q16.85 67.92 17.27 68.42Q17.69 68.93 18.81 68.93L18.81 68.93Q20.38 68.93 21.22 68.17Q22.06 67.42 22.42 66.35Q22.78 65.29 22.87 64.28Q22.95 63.27 22.95 62.77L22.95 62.77L22.95 37.34Q22.95 34.54 22.56 33.37Q22.17 32.19 21.13 31.83Q20.10 31.46 18.14 31.24L18.14 31.24L17.02 31.13L17.02 29.73L25.30 29.90L25.36 29.90L33.65 29.73L33.65 31.13L32.53 31.24Q30.62 31.46 29.56 31.83Q28.50 32.19 28.10 33.37Q27.71 34.54 27.71 37.34L27.71 37.34L27.71 61.76Q27.71 64.62 26.87 66.30Q26.03 67.98 24.66 68.84Q23.29 69.71 21.66 69.99Q20.04 70.27 18.47 70.27ZM44.01 69.66L37.29 69.82L37.29 68.42L38.41 68.31Q40.37 68.09 41.40 67.72Q42.44 67.36 42.83 66.16Q43.22 64.95 43.22 62.21L43.22 62.21L43.22 37.34Q43.22 34.54 42.83 33.37Q42.44 32.19 41.40 31.83Q40.37 31.46 38.41 31.24L38.41 31.24L37.29 31.13L37.29 29.73L45.58 29.90L48.71 29.90L62.04 62.21L76.77 29.90L80.13 29.90L87.97 29.73L87.97 31.13L86.85 31.24Q84.94 31.46 83.88 31.83Q82.82 32.19 82.42 33.37Q82.03 34.54 82.03 37.34L82.03 37.34L82.03 62.21Q82.03 64.95 82.42 66.18Q82.82 67.42 83.88 67.75Q84.94 68.09 86.85 68.31L86.85 68.31L87.97 68.42L87.97 69.82L79.68 69.66L71.34 69.82L71.34 68.42L72.46 68.31Q74.42 68.09 75.45 67.75Q76.49 67.42 76.88 66.18Q77.27 64.95 77.27 62.21L77.27 62.21L77.27 33.42L60.70 69.66L59.63 69.66L45.18 33.98L45.18 63.78Q45.18 65.57 45.63 66.46Q46.08 67.36 47.12 67.72Q48.15 68.09 50 68.31L50 68.31L51.12 68.42L51.12 69.82L44.01 69.66Z"></path></svg>